<svg xmlns="http://www.w3.org/2000/svg" viewBox="0 0 200.41 228.26"><defs><style>.cls-1{fill:#152c39;}.cls-2{fill:#e3b99a;}.cls-3{fill:#c15962;}.cls-4{fill:#bb2d58;}.cls-5{fill:#fff;}</style></defs><g id="图层_2" data-name="图层 2"><g id="图层_1-2" data-name="图层 1"><rect class="cls-1" x="37.61" y="20.65" width="162.8" height="207.61" rx="22.86"/><rect class="cls-2" x="37.64" y="68.55" width="162.77" height="159.71" rx="22.07"/><rect class="cls-1" x="55.62" width="18.08" height="60.73" rx="4.61"/><rect class="cls-1" x="78.68" y="7.82" width="18.08" height="60.73" rx="4.61"/><rect class="cls-1" x="40.85" y="25.97" width="18.08" height="60.73" rx="4.61" transform="translate(-6.45 106.22) rotate(-90)"/><rect class="cls-1" x="50.5" y="4.72" width="18.08" height="60.73" rx="4.61" transform="translate(24.46 94.62) rotate(-90)"/><rect class="cls-1" x="87.05" y="76.5" width="8.28" height="36.26" rx="3.97" transform="translate(-3.44 185.82) rotate(-90)"/><rect class="cls-1" x="166.27" y="76.28" width="8.28" height="36.7" rx="3.97" transform="translate(75.79 265.04) rotate(-90)"/><circle class="cls-2" cx="33.94" cy="128.03" r="33.94"/><path class="cls-3" d="M157.92,178.86c-1.66,25.13-20.4,44.35-41.86,42.93s-37.5-22.94-35.84-48.06l15.63,1,17,1.12,16.9,1.12h0l18.13,1.2Z"/><path class="cls-4" d="M134.79,217.46a34.38,34.38,0,0,1-19,4.33c-13.18-.87-24.31-9.32-30.56-21.54,10.19-5.15,21.75-6,32-1.28A35.3,35.3,0,0,1,134.79,217.46Z"/><circle class="cls-3" cx="35.77" cy="128.03" r="16.77"/><circle class="cls-1" cx="98.54" cy="122.43" r="7.39"/><circle class="cls-1" cx="168.37" cy="123.13" r="7.39"/><path class="cls-5" d="M112.83,175.88v11.6a8,8,0,0,1-8,8h-.92a8,8,0,0,1-8-8V174.76Z"/><path class="cls-5" d="M147.87,178.2,141,193.12a8,8,0,0,1-10.65,3.94l-.83-.39A8,8,0,0,1,125.58,186l4.15-9h0Z"/><rect class="cls-3" x="124.06" y="120.17" width="19.66" height="49.28" rx="8.03"/><rect class="cls-3" x="109.46" y="141.69" width="27.75" height="27.75" rx="13.88"/><rect class="cls-3" x="129.85" y="141.69" width="27.75" height="27.75" rx="13.88"/><ellipse class="cls-5" cx="173.3" cy="128.03" rx="18.18" ry="22.01"/><ellipse class="cls-1" cx="173.3" cy="128.03" rx="8.29" ry="10.03"/><ellipse class="cls-5" cx="91.14" cy="129.82" rx="18.18" ry="22.01"/><ellipse class="cls-1" cx="91.14" cy="129.82" rx="8.29" ry="10.03"/></g></g></svg>